<?xml version="1.0" standalone="no"?>
<!DOCTYPE svg PUBLIC "-//W3C//DTD SVG 20010904//EN"
 "http://www.w3.org/TR/2001/REC-SVG-20010904/DTD/svg10.dtd">
<svg version="1.0" xmlns="http://www.w3.org/2000/svg"
 width="2953.000000pt" height="2953.000000pt" viewBox="0 0 2953.000000 2953.000000"
 preserveAspectRatio="xMidYMid meet">
<metadata>
Created by potrace 1.16, written by Peter Selinger 2001-2019
</metadata>
<g transform="translate(0.000000,2953.000000) scale(0.100000,-0.100000)"
fill="#000000" stroke="none">
<path d="M4820 19480 c-2417 -8 -2262 -3 -2462 -66 -387 -121 -704 -434 -829
-817 -37 -115 -56 -220 -65 -373 l-7 -121 -56 -7 c-31 -3 -73 -10 -94 -16
l-37 -11 2 -161 3 -162 55 -12 c30 -7 74 -13 98 -14 l42 0 0 -145 0 -145 -25
0 c-13 0 -58 -7 -100 -17 l-75 -16 0 -168 0 -169 28 -6 c15 -3 43 -10 62 -15
19 -5 52 -9 73 -9 l37 0 0 -110 0 -110 -32 0 c-33 -1 -156 -24 -162 -31 -2 -2
-1 -79 2 -171 l5 -167 68 -16 c37 -8 79 -15 93 -15 l26 0 1 -987 c1 -544 5
-1728 9 -2633 l7 -1645 25 -105 c64 -262 177 -460 367 -643 192 -185 433 -303
695 -342 99 -14 420 -15 3638 -5 2428 7 3551 13 3601 21 276 41 509 154 705
343 200 192 324 422 377 697 14 76 16 265 14 1894 -1 996 -5 2613 -9 3595 -8
1970 -2 1818 -70 2022 -123 370 -432 679 -802 802 -190 64 -76 60 -1608 61
-767 1 -2387 -2 -3600 -5z m4969 -550 c213 -51 405 -208 497 -405 72 -156 66
-21 74 -1720 4 -841 8 -2441 10 -3555 l3 -2025 -22 -75 c-79 -267 -279 -461
-546 -530 -80 -21 -91 -21 -3465 -31 -1862 -6 -3457 -9 -3545 -6 -177 5 -237
17 -350 72 -191 91 -340 270 -401 480 -16 55 -18 169 -24 1420 -4 748 -8 1921
-9 2606 l-1 1247 190 7 190 8 0 188 0 189 403 0 c221 0 473 3 560 7 l157 6 0
114 0 113 -560 0 -560 0 0 190 0 190 560 0 560 0 0 155 0 155 -560 0 -560 0 0
185 0 185 -195 0 -195 0 0 58 c1 366 219 656 567 755 l78 22 1960 5 c1078 3
2667 6 3530 8 1542 2 1572 1 1654 -18z m-7409 -1355 l0 -145 -184 0 -183 0 -7
46 c-3 26 -6 91 -6 145 l0 99 190 0 190 0 0 -145z m0 -655 l0 -110 -185 0
-185 0 0 110 0 110 185 0 185 0 0 -110z"/>
<path d="M6005 18539 c-2311 -6 -3426 -12 -3461 -19 -190 -39 -225 -304 -54
-400 l45 -25 646 4 c567 3 647 1 660 -12 14 -13 17 -146 22 -1074 12 -1809 9
-3927 -5 -3941 -8 -8 -58 -12 -159 -12 -141 0 -149 1 -163 22 -14 20 -16 186
-16 1575 0 1113 -3 1567 -11 1605 -14 66 -82 140 -144 157 -65 18 -769 15
-830 -3 -63 -19 -122 -77 -139 -136 -11 -37 -12 -503 -6 -2595 7 -2404 8
-2552 25 -2593 21 -51 83 -106 134 -119 57 -15 7203 4 7261 19 58 15 125 81
140 139 17 60 -4 7231 -20 7274 -18 48 -58 94 -103 117 -54 29 288 27 -3822
17z m-1529 -457 c18 -28 31 -4986 14 -5007 -17 -20 -312 -22 -328 -2 -16 20
-28 4992 -12 5012 10 12 41 15 164 15 135 0 152 -2 162 -18z m2152 6 c18 -18
16 -307 -2 -330 -12 -17 -60 -18 -755 -18 l-741 0 0 -155 0 -155 743 0 c565 0
746 -3 755 -12 18 -18 16 -327 -2 -350 -12 -17 -60 -18 -755 -18 l-741 0 0
-120 0 -120 743 0 c565 0 746 -3 755 -12 18 -18 17 -332 -1 -347 -9 -7 -240
-13 -753 -17 l-740 -7 4 -1669 c4 -1324 2 -1671 -8 -1683 -10 -12 -41 -15
-160 -15 -127 0 -149 2 -162 18 -14 15 -16 285 -23 2505 -6 1964 -5 2490 5
2502 11 13 130 15 919 15 692 0 910 -3 919 -12z m2624 -1225 c16 -14 18 -33
18 -166 0 -126 -3 -153 -17 -169 -15 -17 -41 -18 -393 -18 -207 0 -437 -5
-511 -11 -532 -41 -939 -182 -1201 -416 -36 -32 -93 -78 -126 -102 -177 -126
-452 -484 -567 -738 -67 -150 -117 -293 -160 -458 -56 -220 -69 -330 -70 -602
l0 -243 -161 0 c-148 0 -162 2 -179 20 -17 18 -17 37 -12 227 26 946 387 1674
1094 2206 173 131 269 188 449 269 179 80 370 145 524 179 99 22 132 24 575
29 259 3 526 7 594 8 104 2 127 -1 143 -15z m6 -615 c17 -17 17 -342 -1 -356
-8 -7 -200 -12 -572 -15 -533 -3 -565 -5 -658 -26 -276 -62 -489 -183 -712
-406 -244 -244 -392 -492 -470 -787 -49 -188 -58 -261 -60 -493 l-1 -220 -161
-3 c-138 -2 -162 0 -174 14 -19 23 -24 240 -10 406 37 411 168 774 388 1073
87 118 313 343 438 436 135 100 338 221 434 258 153 59 339 105 485 121 127
13 1060 12 1074 -2z m2 -707 c15 -29 13 -324 -2 -339 -9 -9 -115 -12 -415 -12
-222 0 -447 -5 -501 -11 -283 -31 -464 -100 -588 -227 -157 -159 -252 -316
-301 -497 -25 -94 -27 -113 -27 -307 l1 -208 -163 0 c-159 0 -164 1 -176 23
-21 36 -17 400 5 506 84 390 278 664 641 903 117 77 191 111 311 144 94 26
117 28 375 34 151 3 400 7 552 8 265 2 278 1 288 -17z m-449 -1088 c22 -26 24
-321 5 -485 -88 -721 -460 -1260 -1126 -1632 -94 -53 -292 -123 -445 -157 -96
-22 -122 -23 -663 -26 -422 -3 -567 -1 -578 8 -19 16 -21 331 -1 347 8 6 204
12 552 15 460 3 554 7 635 22 385 71 709 294 981 675 215 301 317 656 307
1067 l-4 172 70 4 c199 9 253 7 267 -10z m564 -10 c16 -24 17 -48 12 -247 -6
-232 -22 -373 -62 -568 -146 -713 -535 -1286 -1159 -1710 -187 -127 -471 -254
-723 -323 -216 -60 -290 -65 -885 -65 -480 0 -533 2 -550 17 -16 14 -18 33
-18 162 1 106 4 151 14 164 12 16 40 17 332 17 175 0 398 5 494 10 577 34
1002 173 1287 422 33 29 93 78 133 108 126 96 279 273 423 490 86 130 120 197
190 375 130 330 179 594 177 960 -1 110 -1 203 -1 208 1 4 72 7 160 7 l159 0
17 -27z m-1199 0 c13 -31 17 -331 4 -429 -49 -393 -261 -721 -622 -963 -133
-89 -220 -130 -345 -164 l-118 -31 -538 -4 c-403 -2 -542 0 -553 9 -19 15 -21
318 -2 337 9 9 106 12 374 12 513 0 711 20 895 91 118 46 184 94 295 217 212
235 283 441 271 784 l-5 158 168 0 c150 0 169 -2 176 -17z"/>
<path d="M16733 18445 c-281 -51 -472 -192 -545 -404 -33 -94 -32 -279 1 -363
58 -148 186 -253 396 -321 44 -15 157 -45 250 -66 297 -69 367 -107 367 -197
0 -188 -464 -193 -811 -8 -47 24 -88 41 -92 37 -10 -10 -169 -370 -169 -382 0
-16 173 -98 270 -129 181 -58 252 -67 505 -67 217 1 236 2 327 27 280 76 456
252 490 486 30 217 -59 403 -242 504 -95 52 -191 84 -405 134 -234 54 -309 80
-352 120 -28 27 -33 38 -33 77 0 185 367 211 718 51 42 -19 79 -31 83 -27 8 9
159 371 159 382 0 11 -108 61 -200 93 -139 47 -287 68 -478 67 -92 0 -199 -7
-239 -14z"/>
<path d="M11590 18210 l0 -210 285 0 285 0 0 -710 0 -710 260 0 260 0 0 710 0
710 285 0 285 0 0 210 0 210 -830 0 -830 0 0 -210z"/>
<path d="M13430 17501 l0 -921 260 0 260 0 0 240 0 240 143 0 142 -1 163 -239
163 -240 285 0 c268 0 284 1 275 18 -5 9 -93 138 -194 286 l-185 269 56 34
c132 79 242 228 277 374 20 87 20 274 -1 358 -58 232 -234 398 -499 472 -77
22 -98 23 -612 26 l-533 4 0 -920z m964 479 c34 -13 74 -38 97 -61 96 -96 87
-296 -17 -378 -63 -50 -127 -63 -331 -69 l-193 -5 0 273 0 273 193 -6 c166 -4
200 -8 251 -27z"/>
<path d="M15370 17500 l0 -920 260 0 260 0 0 920 0 920 -260 0 -260 0 0 -920z"/>
<path d="M17952 17803 c3 -605 4 -620 26 -698 35 -126 94 -235 174 -320 159
-170 362 -245 663 -245 301 0 504 75 663 245 80 85 139 194 174 320 22 78 23
93 26 698 l3 617 -261 0 -260 0 0 -552 c0 -603 -3 -641 -57 -739 -30 -56 -64
-88 -127 -122 -35 -19 -57 -22 -156 -22 -105 0 -119 2 -165 27 -83 44 -127
105 -162 225 -14 50 -17 134 -21 621 l-4 562 -259 0 -260 0 3 -617z"/>
<path d="M20030 17501 l0 -921 260 0 260 0 0 240 0 240 143 0 142 -1 163 -239
163 -240 285 0 c268 0 284 1 275 18 -5 9 -93 138 -194 286 l-185 269 56 34
c132 79 242 228 277 374 20 87 20 274 -1 358 -58 232 -234 398 -499 472 -77
22 -98 23 -612 26 l-533 4 0 -920z m964 479 c34 -13 74 -38 97 -61 96 -96 87
-296 -17 -378 -63 -50 -127 -63 -331 -69 l-193 -5 0 273 0 273 193 -6 c166 -4
200 -8 251 -27z"/>
<path d="M21994 17948 c155 -260 314 -527 354 -593 l72 -121 0 -327 0 -327
260 0 260 0 0 324 0 324 346 578 c190 319 350 587 355 597 9 16 -4 17 -251 15
l-261 -3 -213 -356 -213 -357 -213 359 -214 359 -282 0 -283 0 283 -472z"/>
<path d="M23838 17517 c-218 -496 -400 -910 -404 -920 -6 -16 9 -17 266 -15
l272 3 20 50 c11 28 42 105 70 173 l50 122 385 -2 385 -3 70 -172 71 -173 273
0 c151 0 274 3 274 8 0 4 -181 417 -402 919 l-403 912 -265 0 -265 0 -397
-902z m767 103 c59 -146 110 -273 113 -282 4 -17 -11 -18 -223 -18 -212 0
-227 1 -221 18 15 41 221 550 222 548 1 0 50 -120 109 -266z"/>
<path d="M12233 15865 c-281 -51 -472 -192 -545 -404 -33 -94 -32 -279 1 -363
58 -148 186 -253 396 -321 44 -15 157 -45 250 -66 297 -69 367 -107 367 -197
0 -188 -464 -193 -811 -8 -47 24 -88 41 -92 37 -10 -10 -169 -370 -169 -382 0
-16 173 -98 270 -129 181 -58 252 -67 505 -67 217 1 236 2 327 27 280 76 456
252 490 486 30 217 -59 403 -242 504 -95 52 -191 84 -405 134 -234 54 -309 80
-352 120 -28 27 -33 38 -33 77 0 185 367 211 718 51 42 -19 79 -31 83 -27 8 9
159 371 159 382 0 11 -108 61 -200 93 -139 47 -287 68 -478 67 -92 0 -199 -7
-239 -14z"/>
<path d="M14142 15859 c-330 -69 -599 -289 -712 -581 -16 -40 -35 -108 -44
-150 -21 -102 -21 -314 0 -416 76 -370 369 -652 762 -732 188 -38 450 -24 617
33 328 112 549 351 632 685 24 94 24 350 0 444 -83 334 -304 573 -632 685
-166 56 -439 71 -623 32z m399 -439 c159 -49 280 -178 324 -346 9 -34 16 -99
16 -154 0 -55 -7 -120 -16 -154 -45 -170 -166 -298 -328 -348 -57 -17 -87 -20
-173 -16 -97 4 -109 7 -188 46 -127 63 -201 152 -252 302 -14 41 -19 84 -19
170 0 121 12 173 61 271 52 105 187 211 300 238 72 17 207 13 275 -9z"/>
<path d="M19803 15865 c-281 -51 -472 -192 -545 -404 -33 -94 -32 -279 1 -363
58 -148 186 -253 396 -321 44 -15 157 -45 250 -66 297 -69 367 -107 367 -197
0 -188 -464 -193 -811 -8 -47 24 -88 41 -92 37 -10 -10 -169 -370 -169 -382 0
-16 173 -98 270 -129 181 -58 252 -67 505 -67 217 1 236 2 327 27 280 76 456
252 490 486 30 217 -59 403 -242 504 -95 52 -191 84 -405 134 -234 54 -309 80
-352 120 -28 27 -33 38 -33 77 0 185 367 211 718 51 42 -19 79 -31 83 -27 8 9
159 371 159 382 0 11 -108 61 -200 93 -139 47 -287 68 -478 67 -92 0 -199 -7
-239 -14z"/>
<path d="M26892 15859 c-330 -69 -599 -289 -712 -581 -43 -112 -60 -211 -60
-358 0 -147 17 -246 60 -358 114 -295 384 -513 718 -582 122 -25 338 -27 463
-5 340 59 625 281 739 576 54 140 64 199 64 369 0 170 -10 229 -64 369 -114
295 -399 517 -739 576 -122 22 -352 19 -469 -6z m399 -439 c159 -49 280 -178
324 -346 20 -77 20 -231 0 -308 -45 -170 -166 -298 -328 -348 -57 -17 -87 -20
-173 -16 -97 4 -109 7 -188 46 -127 63 -201 152 -252 302 -14 41 -19 84 -19
170 0 121 12 173 61 271 52 105 187 211 300 238 72 17 207 13 275 -9z"/>
<path d="M15680 14920 l0 -920 700 0 700 0 0 210 0 210 -440 0 -440 0 0 710 0
710 -260 0 -260 0 0 -920z"/>
<path d="M17262 15223 c3 -605 4 -620 26 -698 35 -126 94 -235 174 -320 159
-170 362 -245 663 -245 301 0 504 75 663 245 80 85 139 194 174 320 22 78 23
93 26 698 l3 617 -261 0 -260 0 0 -552 c0 -603 -3 -641 -57 -739 -30 -56 -64
-88 -127 -122 -35 -19 -57 -22 -156 -22 -105 0 -119 2 -165 27 -83 44 -127
105 -162 225 -14 50 -17 134 -21 621 l-4 562 -259 0 -260 0 3 -617z"/>
<path d="M21030 14920 l0 -920 260 0 260 0 0 920 0 920 -260 0 -260 0 0 -920z"/>
<path d="M21920 14920 l0 -920 255 0 255 0 2 482 3 481 399 -481 399 -482 218
0 219 0 0 920 0 920 -255 0 -255 0 -2 -482 -3 -481 -399 481 -399 482 -218 0
-219 0 0 -920z"/>
<path d="M24040 14920 l0 -920 514 0 c569 0 611 3 788 64 131 45 236 107 331
195 120 113 184 217 234 378 26 83 27 99 27 283 0 184 -1 200 -27 283 -50 161
-114 265 -234 378 -95 88 -200 150 -331 195 -177 61 -219 64 -788 64 l-514 0
0 -920z m1041 472 c147 -49 258 -157 302 -296 17 -55 22 -95 22 -176 0 -187
-64 -321 -195 -408 -110 -74 -162 -85 -422 -90 l-228 -4 0 502 0 502 228 -4
c199 -4 235 -7 293 -26z"/>
<path d="M11752 12653 c3 -605 4 -620 26 -698 35 -126 94 -235 174 -320 159
-170 362 -245 663 -245 301 0 504 75 663 245 80 85 139 194 174 320 22 78 23
93 26 698 l3 617 -261 0 -260 0 0 -552 c0 -603 -3 -641 -57 -739 -30 -56 -64
-88 -127 -122 -35 -19 -57 -22 -156 -22 -105 0 -119 2 -165 27 -83 44 -127
105 -162 225 -14 50 -17 134 -21 621 l-4 562 -259 0 -260 0 3 -617z"/>
<path d="M13630 13060 l0 -210 285 0 285 0 0 -710 0 -710 260 0 260 0 0 710 0
710 285 0 285 0 0 210 0 210 -830 0 -830 0 0 -210z"/>
<path d="M15558 12367 c-218 -496 -400 -910 -404 -920 -6 -16 9 -17 266 -15
l272 3 20 50 c11 28 42 105 70 173 l50 122 385 -2 385 -3 70 -172 71 -173 273
0 c151 0 274 3 274 8 0 4 -181 417 -402 919 l-403 912 -265 0 -265 0 -397
-902z m767 103 c59 -146 110 -273 113 -282 4 -17 -11 -18 -223 -18 -212 0
-227 1 -221 18 15 41 221 550 222 548 1 0 50 -120 109 -266z"/>
<path d="M17440 12350 l0 -920 240 0 240 0 2 464 3 464 230 -374 230 -374 125
2 124 3 231 384 230 385 3 -477 2 -477 247 0 246 0 -6 647 c-4 355 -7 769 -7
920 l0 273 -219 0 -219 0 -313 -524 -313 -524 -95 156 c-53 86 -197 322 -321
525 l-224 367 -218 0 -218 0 0 -920z"/>
<path d="M20128 12367 c-218 -496 -400 -910 -404 -920 -6 -16 9 -17 266 -15
l272 3 20 50 c11 28 42 105 70 173 l50 122 385 -2 385 -3 70 -172 71 -173 273
0 c151 0 274 3 274 8 0 4 -181 417 -402 919 l-403 912 -265 0 -265 0 -397
-902z m767 103 c59 -146 110 -273 113 -282 4 -17 -11 -18 -223 -18 -212 0
-227 1 -221 18 15 41 221 550 222 548 1 0 50 -120 109 -266z"/>
</g>
</svg>
